<?xml version="1.0" standalone="no"?>
<!DOCTYPE svg PUBLIC "-//W3C//DTD SVG 20010904//EN"
 "http://www.w3.org/TR/2001/REC-SVG-20010904/DTD/svg10.dtd">
<svg version="1.0" xmlns="http://www.w3.org/2000/svg"
 width="300.000000pt" height="300.000000pt" viewBox="0 0 300.000000 300.000000"
 preserveAspectRatio="xMidYMid meet">
<metadata>
Created by potrace 1.14, written by Peter Selinger 2001-2017
</metadata>
<g transform="translate(0.000000,300.000000) scale(0.100000,-0.100000)"
fill="#000000" stroke="none">
<path d="M1416 2875 c17 -57 17 -96 -2 -111 -19 -14 -18 -15 1 -12 26 4 32 63
10 109 -8 19 -13 25 -9 14z"/>
<path d="M1403 2620 c-40 -24 -44 -34 -5 -14 15 7 37 14 49 14 12 0 25 5 28
10 11 17 -39 11 -72 -10z"/>
<path d="M895 2600 c-13 -6 -2 -7 30 -3 28 3 52 7 54 9 9 8 -65 2 -84 -6z"/>
<path d="M1591 2090 c14 -31 19 -36 19 -24 0 6 -7 19 -16 30 -14 18 -14 18 -3
-6z"/>
<path d="M871 1885 c-1 -11 -4 -31 -7 -45 -5 -22 -4 -23 6 -7 6 10 9 30 7 45
-3 18 -5 20 -6 7z"/>
<path d="M386 1875 c-9 -26 -7 -32 5 -12 6 10 9 21 6 23 -2 3 -7 -2 -11 -11z"/>
<path d="M362 1813 c-16 -42 -32 -106 -27 -111 2 -2 7 7 11 22 3 14 10 24 14
21 5 -3 12 0 16 6 3 6 1 14 -5 18 -9 6 -9 15 -1 36 6 15 9 30 7 32 -3 2 -9 -9
-15 -24z"/>
<path d="M1710 1736 c0 -9 5 -16 10 -16 6 0 10 4 10 9 0 6 -4 13 -10 16 -5 3
-10 -1 -10 -9z"/>
<path d="M361 1704 c0 -11 3 -14 6 -6 3 7 2 16 -1 19 -3 4 -6 -2 -5 -13z"/>
<path d="M1557 1702 c3 -12 9 -25 14 -28 14 -8 11 10 -6 32 -13 18 -14 18 -8
-4z"/>
<path d="M2543 1650 c0 -36 2 -50 4 -32 2 17 2 47 0 65 -2 17 -4 3 -4 -33z"/>
<path d="M1432 1630 c0 -14 4 -36 8 -50 6 -20 8 -21 8 -5 0 11 -4 34 -8 50 -7
27 -8 27 -8 5z"/>
<path d="M960 1585 c7 -9 15 -13 17 -11 7 7 -7 26 -19 26 -6 0 -6 -6 2 -15z"/>
<path d="M1031 1585 c0 -5 6 -19 14 -29 8 -11 15 -15 15 -10 0 6 -7 19 -15 30
-8 10 -14 15 -14 9z"/>
<path d="M808 1563 c7 -3 16 -2 19 1 4 3 -2 6 -13 5 -11 0 -14 -3 -6 -6z"/>
<path d="M2216 1510 c-4 -30 -10 -64 -12 -75 -4 -17 -3 -17 9 3 7 12 16 19 20
16 9 -9 8 19 -2 71 l-7 40 -8 -55z"/>
<path d="M1575 1521 c-53 -25 -33 -26 30 -1 28 10 41 19 30 19 -11 0 -38 -8
-60 -18z"/>
<path d="M1726 1507 c-14 -10 -16 -16 -7 -21 7 -5 17 -20 23 -34 11 -26 12
-26 15 -4 3 17 10 21 26 18 12 -3 43 -8 69 -11 41 -5 48 -10 57 -37 6 -17 11
-44 11 -59 0 -15 5 -31 12 -35 8 -5 10 8 5 49 -3 34 -2 57 4 57 16 0 31 -53
24 -88 -4 -21 -3 -32 3 -28 5 3 13 22 16 41 4 19 11 35 16 35 19 0 -6 48 -46
85 -42 39 -44 40 -126 43 -60 3 -88 0 -102 -11z"/>
<path d="M1087 1479 c10 -17 27 -38 37 -47 11 -9 5 4 -14 31 -38 53 -50 62
-23 16z"/>
<path d="M2321 1494 c0 -11 3 -14 6 -6 3 7 2 16 -1 19 -3 4 -6 -2 -5 -13z"/>
<path d="M1625 1480 c-9 -10 -27 -21 -41 -24 -21 -6 -36 -28 -16 -25 19 3 22
-3 12 -21 -15 -28 16 -27 47 2 l23 21 0 -44 c0 -53 14 -108 35 -134 13 -17 13
-14 -1 19 -10 26 -15 65 -14 115 1 42 2 81 1 87 -2 21 -29 23 -46 4z"/>
<path d="M1777 1393 c-20 -19 2 -93 27 -93 18 0 39 54 31 79 -6 20 -43 29 -58
14z m37 -56 c-3 -9 -10 -17 -15 -17 -11 0 -12 34 -2 44 11 11 24 -9 17 -27z"/>
<path d="M511 1374 c0 -11 3 -14 6 -6 3 7 2 16 -1 19 -3 4 -6 -2 -5 -13z"/>
<path d="M490 1301 c0 -84 -13 -86 -31 -5 -7 30 -15 57 -19 59 -9 6 5 -88 24
-158 9 -32 16 -60 16 -62 0 -3 6 -5 13 -5 9 0 12 30 12 114 0 63 -3 118 -7
122 -5 4 -8 -25 -8 -65z"/>
<path d="M926 1359 c-22 -5 -44 -8 -50 -6 -6 2 -17 -1 -24 -7 -28 -22 -106
-98 -94 -92 8 5 19 -7 32 -36 10 -24 33 -54 50 -66 l31 -23 -17 38 c-35 78
-28 116 21 125 16 2 21 -3 23 -27 2 -16 9 -43 17 -60 8 -16 21 -47 29 -67 8
-21 20 -38 27 -38 6 0 9 6 6 13 -3 6 -12 29 -21 50 -9 20 -12 37 -7 37 5 0 11
-6 14 -12 5 -17 37 8 37 28 0 19 67 18 104 -1 15 -8 32 -15 36 -15 15 0 4 89
-14 109 -40 44 -131 67 -200 50z m-69 -45 c-3 -3 -12 -4 -19 -1 -8 3 -5 6 6 6
11 1 17 -2 13 -5z m241 -29 c17 -6 15 -35 -2 -35 -8 0 -18 5 -21 10 -9 15 -25
12 -25 -5 0 -17 -35 -21 -45 -5 -3 6 -1 10 4 10 6 0 11 5 11 10 0 6 -7 10 -15
10 -8 0 -15 5 -15 11 0 9 70 5 108 -6z m-118 -45 c0 -13 -28 -25 -38 -16 -3 4
0 11 8 16 20 13 30 12 30 0z"/>
<path d="M521 1335 c0 -11 4 -27 9 -35 9 -13 10 -13 9 0 0 8 -4 24 -9 35 l-9
20 0 -20z"/>
<path d="M1910 1274 c0 -8 5 -12 10 -9 6 3 10 10 10 16 0 5 -4 9 -10 9 -5 0
-10 -7 -10 -16z"/>
<path d="M535 1250 c9 -43 48 -122 69 -139 11 -9 14 -22 9 -40 -6 -25 -6 -25
12 -8 17 17 17 19 -3 40 -11 12 -34 56 -52 97 -38 88 -45 98 -35 50z"/>
<path d="M1270 1276 c0 -2 8 -10 18 -17 15 -13 16 -12 3 4 -13 16 -21 21 -21
13z"/>
<path d="M1879 1229 c-32 -28 -62 -39 -110 -39 -27 0 -38 -4 -33 -11 10 -17
112 -4 136 18 19 17 43 53 35 53 -2 0 -15 -9 -28 -21z"/>
<path d="M2214 1199 c-10 -12 -45 -44 -77 -70 -32 -27 -55 -49 -52 -49 16 0
64 32 94 64 41 42 51 44 52 14 1 -22 1 -22 9 2 19 59 8 76 -26 39z"/>
<path d="M1060 1194 c0 -10 -6 -14 -15 -10 -10 4 -15 -1 -15 -14 0 -11 5 -20
10 -20 6 0 14 -9 18 -20 8 -20 8 -20 31 4 22 23 22 26 7 41 -9 9 -16 21 -16
26 0 5 -4 9 -10 9 -5 0 -10 -7 -10 -16z"/>
<path d="M1140 1122 c0 -25 -7 -45 -18 -55 -24 -22 -80 -22 -112 -1 -19 13
-18 9 6 -14 29 -28 35 -30 68 -21 51 14 66 33 66 85 0 24 -2 44 -5 44 -3 0 -5
-17 -5 -38z"/>
<path d="M1945 1120 c-9 -16 -13 -30 -11 -30 3 0 12 14 21 30 9 17 13 30 11
30 -3 0 -12 -13 -21 -30z"/>
<path d="M2024 1109 c-18 -19 -22 -28 -12 -24 16 6 16 4 7 -25 -6 -17 -9 -33
-7 -36 3 -2 11 17 18 43 7 26 17 54 23 61 18 23 1 12 -29 -19z"/>
<path d="M506 1085 c4 -8 8 -15 10 -15 2 0 4 7 4 15 0 8 -4 15 -10 15 -5 0 -7
-7 -4 -15z"/>
<path d="M461 1064 c0 -11 3 -14 6 -6 3 7 2 16 -1 19 -3 4 -6 -2 -5 -13z"/>
<path d="M2211 1044 c0 -11 3 -14 6 -6 3 7 2 16 -1 19 -3 4 -6 -2 -5 -13z"/>
<path d="M680 955 c0 -102 26 -202 80 -310 39 -77 93 -146 105 -133 3 2 -10
22 -28 44 -89 105 -139 240 -136 362 1 34 4 62 7 62 3 0 11 -8 18 -17 7 -10
15 -15 18 -12 3 3 -10 23 -29 45 l-35 39 0 -80z"/>
<path d="M512 985 c0 -16 2 -22 5 -12 2 9 2 23 0 30 -3 6 -5 -1 -5 -18z"/>
<path d="M1983 958 c-15 -33 -18 -46 -8 -38 14 11 40 78 33 85 -1 1 -13 -20
-25 -47z"/>
<path d="M765 939 c4 -5 24 -18 45 -29 20 -10 70 -54 110 -97 40 -43 63 -64
52 -48 -11 17 -32 41 -47 55 -14 13 -35 39 -46 56 -12 20 -37 39 -69 52 -28
12 -48 17 -45 11z"/>
<path d="M2257 903 c-9 -25 -15 -48 -12 -51 2 -3 7 4 11 14 3 10 11 32 16 47
6 15 9 30 6 32 -2 2 -12 -17 -21 -42z"/>
<path d="M434 870 c11 -113 17 -154 33 -203 12 -40 13 -50 1 -65 -12 -15 -11
-16 4 -4 15 12 18 10 23 -15 10 -44 37 -117 47 -128 6 -5 2 8 -7 30 -9 22 -20
60 -25 85 -5 25 -16 70 -25 100 -9 30 -20 97 -25 148 -4 52 -13 99 -20 105 -9
9 -10 -3 -6 -53z"/>
<path d="M1997 917 c-4 -10 -7 -35 -6 -55 l1 -37 9 40 c11 45 8 82 -4 52z"/>
<path d="M2311 824 c-1 -23 -4 -63 -8 -89 -4 -30 -3 -46 3 -42 6 3 19 -17 30
-45 24 -63 34 -70 23 -15 -5 23 -13 71 -19 107 -5 36 -14 79 -19 95 -9 30 -9
29 -10 -11z"/>
<path d="M1870 794 c-41 -42 -162 -137 -266 -207 -22 -15 -51 -27 -65 -27 -44
0 -293 79 -369 117 -90 45 -101 50 -75 27 27 -22 156 -83 216 -100 43 -13 49
-18 49 -42 0 -16 -6 -34 -12 -41 -11 -11 -10 -13 4 -8 14 5 19 -2 23 -31 16
-95 28 -80 17 21 l-8 76 25 -6 c14 -3 46 -12 71 -19 25 -8 54 -14 66 -14 11 0
70 37 130 83 60 46 121 91 136 101 l27 18 -5 -39 c-3 -21 -10 -58 -15 -82 -7
-30 -6 -54 1 -77 8 -24 8 -39 0 -54 -8 -16 -8 -20 2 -18 9 2 15 -15 19 -52 l6
-55 1 55 c1 30 -3 72 -9 94 -8 27 -8 41 0 49 6 6 11 22 10 37 l-1 25 -8 -25
c-8 -23 -7 8 4 123 2 15 11 37 22 50 70 81 72 92 4 21z"/>
<path d="M840 805 c0 -17 -2 -48 -5 -70 l-5 -40 11 38 c6 20 14 37 18 37 16 0
75 -80 109 -146 20 -39 52 -75 52 -59 0 8 -153 240 -171 260 -5 5 -9 -3 -9
-20z"/>
<path d="M2231 769 c-6 -18 -11 -37 -10 -43 0 -6 7 7 15 28 8 22 12 41 10 43
-2 2 -9 -10 -15 -28z"/>
<path d="M510 738 c0 -7 5 -20 10 -28 8 -12 10 -11 10 7 0 12 -4 25 -10 28 -5
3 -10 0 -10 -7z"/>
<path d="M627 675 c-9 -87 0 -142 36 -212 33 -66 41 -73 51 -48 3 9 0 15 -9
15 -8 0 -15 5 -15 10 0 14 23 13 38 -2 9 -9 12 -9 12 -1 0 7 -4 15 -10 18 -22
13 -1 48 24 39 11 -4 15 -13 10 -26 -5 -17 -4 -18 14 -7 20 12 20 13 -3 31
-29 23 -70 38 -102 38 -23 0 -25 3 -19 31 3 17 6 38 6 46 0 8 4 11 10 8 10 -6
3 22 -11 40 -4 6 -11 26 -16 45 -9 34 -10 34 -16 -25z m71 -181 c-9 -9 -21
-13 -27 -9 -16 10 -3 25 22 25 20 0 20 -1 5 -16z"/>
<path d="M1047 678 c56 -82 148 -195 152 -187 2 6 -6 19 -18 30 -12 11 -21 24
-21 29 0 5 -15 24 -32 42 -18 18 -48 51 -66 73 -19 22 -26 28 -15 13z"/>
<path d="M2266 617 c-23 -52 -28 -79 -31 -166 -5 -124 -14 -140 -61 -110 -20
12 -34 31 -39 52 -6 28 -8 30 -15 12 -13 -31 -11 -72 3 -78 8 -3 39 -8 69 -12
l56 -7 4 133 c4 112 8 142 27 182 13 27 21 50 19 53 -2 2 -17 -25 -32 -59z"/>
<path d="M2556 645 c8 -37 24 -57 24 -29 0 11 -7 29 -15 40 -14 18 -15 17 -9
-11z"/>
<path d="M440 560 c-6 -11 -8 -20 -6 -20 3 0 10 9 16 20 6 11 8 20 6 20 -3 0
-10 -9 -16 -20z"/>
<path d="M1234 544 c-6 -32 11 -122 22 -112 2 2 -1 20 -6 39 -6 19 -8 51 -4
72 7 47 -3 49 -12 1z"/>
<path d="M1030 543 c0 -12 38 -48 45 -41 3 2 -6 15 -20 28 -14 13 -25 19 -25
13z"/>
<path d="M919 511 c6 -11 17 -23 23 -28 9 -5 5 -9 -12 -14 l-25 -7 28 -1 c36
-1 37 30 1 54 -25 16 -25 16 -15 -4z"/>
<path d="M2516 482 c-3 -6 1 -12 9 -15 8 -3 23 -23 34 -44 24 -46 27 -22 3 26
-18 36 -36 49 -46 33z"/>
<path d="M878 473 c7 -3 16 -2 19 1 4 3 -2 6 -13 5 -11 0 -14 -3 -6 -6z"/>
<path d="M2491 450 c-2 -19 -4 -65 -5 -102 l-1 -68 45 -32 c72 -53 79 -54 23
-4 l-52 47 -4 97 c-1 53 -4 81 -6 62z"/>
<path d="M1275 399 c-16 -11 -40 -18 -53 -16 -17 3 -22 1 -18 -10 3 -8 6 -16
6 -19 0 -9 90 41 94 53 6 16 8 16 -29 -8z"/>
<path d="M1026 390 c3 -14 10 -32 15 -40 7 -13 8 -13 8 0 0 8 -6 26 -15 40
l-15 25 7 -25z"/>
<path d="M1670 373 c-19 -20 -20 -23 -5 -14 37 19 47 28 39 33 -5 3 -20 -6
-34 -19z"/>
<path d="M607 370 c3 -11 9 -20 15 -20 5 0 4 9 -2 20 -6 11 -12 20 -14 20 -2
0 -2 -9 1 -20z"/>
<path d="M1420 386 c0 -9 82 -56 97 -55 14 0 12 3 -6 10 -13 5 -36 18 -51 29
-27 19 -40 24 -40 16z"/>
<path d="M1905 360 c-16 -18 -17 -20 -2 -14 18 7 20 2 21 -55 1 -19 7 -36 14
-39 10 -3 11 8 6 50 -9 74 -16 84 -39 58z"/>
<path d="M2281 353 c0 -6 -4 -18 -7 -27 -5 -12 0 -16 22 -15 16 1 21 3 12 6
-9 2 -19 14 -21 26 -2 12 -5 17 -6 10z"/>
<path d="M2620 337 c0 -2 15 -16 33 -33 l32 -29 -29 33 c-28 30 -36 37 -36 29z"/>
<path d="M1051 314 c0 -11 3 -14 6 -6 3 7 2 16 -1 19 -3 4 -6 -2 -5 -13z"/>
<path d="M1585 310 c-16 -17 -16 -20 -3 -15 9 4 19 13 22 21 7 19 2 18 -19 -6z"/>
<path d="M520 239 c0 -5 5 -7 10 -4 6 3 10 8 10 11 0 2 -4 4 -10 4 -5 0 -10
-5 -10 -11z"/>
<path d="M1911 199 c-7 -12 -10 -23 -8 -26 3 -3 11 5 17 17 15 28 8 35 -9 9z"/>
<path d="M1087 138 c4 -29 3 -39 -5 -34 -14 9 -15 -39 -2 -69 7 -14 8 -9 4 20
-5 39 -5 39 12 20 16 -19 16 -19 10 14 -3 18 -6 46 -6 62 0 16 -4 29 -9 29 -5
0 -7 -19 -4 -42z"/>
<path d="M1492 157 c-10 -12 -10 -16 0 -19 9 -3 8 -11 -6 -32 -26 -40 -13 -43
16 -4 31 41 45 77 24 59 -10 -9 -15 -9 -18 0 -2 7 -8 6 -16 -4z"/>
<path d="M1582 160 c3 -8 1 -27 -3 -42 -4 -16 -3 -30 2 -33 5 -4 9 1 9 9 0 9
5 16 11 16 12 0 2 39 -13 55 -7 7 -9 5 -6 -5z"/>
</g>
</svg>
